<svg width="13" height="13" viewBox="0 0 13 13" fill="none" xmlns="http://www.w3.org/2000/svg">
<circle cx="6.5" cy="6.5" r="6.5" fill="#FF353A"/>
<path d="M6.62 10.08C6.12667 10.08 5.64667 10.0033 5.18 9.85C4.72 9.69667 4.34333 9.49 4.05 9.23L4.51 8.44C4.74333 8.66 5.04667 8.84 5.42 8.98C5.79333 9.12 6.19333 9.19 6.62 9.19C7.14 9.19 7.54333 9.08 7.83 8.86C8.12333 8.63333 8.27 8.33 8.27 7.95C8.27 7.58333 8.13 7.29 7.85 7.07C7.57667 6.84333 7.14 6.73 6.54 6.73H5.98V6.03L8.06 3.47L8.2 3.87H4.37V3H8.99V3.68L6.92 6.23L6.4 5.92H6.73C7.57667 5.92 8.21 6.11 8.63 6.49C9.05667 6.87 9.27 7.35333 9.27 7.94C9.27 8.33333 9.17333 8.69333 8.98 9.02C8.78667 9.34667 8.49333 9.60667 8.1 9.8C7.71333 9.98667 7.22 10.08 6.62 10.08Z" fill="white"/>
</svg>
