<svg width="149.000000" height="204.000000" viewBox="0 0 149 204" fill="none" xmlns="http://www.w3.org/2000/svg" xmlns:xlink="http://www.w3.org/1999/xlink">
	<desc>
			Created with Pixso.
	</desc>
	<defs>
		<filter id="filter_1_413_dd" x="-497.000000" y="874.000000" width="0.000000" height="0.000000" filterUnits="userSpaceOnUse" color-interpolation-filters="sRGB">
			<feFlood flood-opacity="0" result="BackgroundImageFix"/>
			<feColorMatrix in="SourceAlpha" type="matrix" values="0 0 0 0 0 0 0 0 0 0 0 0 0 0 0 0 0 0 127 0" result="hardAlpha"/>
			<feOffset dx="0" dy="24"/>
			<feGaussianBlur stdDeviation="12"/>
			<feComposite in2="hardAlpha" operator="out" k2="-1" k3="1"/>
			<feColorMatrix type="matrix" values="0 0 0 0 0.20784 0 0 0 0 0.19216 0 0 0 0 0.32941 0 0 0 0.28 0"/>
			<feBlend mode="normal" in2="BackgroundImageFix" result="effect_dropShadow_1"/>
			<feBlend mode="normal" in="SourceGraphic" in2="effect_dropShadow_1" result="shape"/>
		</filter>
	</defs>
	<rect id="bg" width="149.000000" height="204.000000" fill="#9E98DC" fill-opacity="1.000000"/>
	<path id="Arrow" d="M20 177L74 177L74 179L20 179L20 177Z" fill="#1C2A39" fill-opacity="1.000000" fill-rule="evenodd"/>
	<path id="Vector" d="M68 172L75 178L68 184" stroke="#1C2A39" stroke-opacity="1.000000" stroke-width="2.000000"/>
	<path id="Change old book on new" d="M24.52 118.61Q25.89 119.21 27.52 119.21Q29.16 119.21 30.49 118.64Q31.28 118.29 31.92 117.77Q32.36 117.41 32.72 116.96L30.85 115.23Q30.14 116.07 29.24 116.43Q28.52 116.73 27.68 116.73Q26.63 116.73 25.79 116.32Q25.69 116.27 25.59 116.21Q25.12 115.95 24.76 115.58Q24.41 115.23 24.16 114.79Q24.11 114.7 24.07 114.61Q23.65 113.76 23.65 112.69Q23.65 111.65 24.06 110.8Q24.11 110.7 24.16 110.61Q24.42 110.14 24.79 109.78Q25.14 109.43 25.59 109.18Q25.69 109.12 25.79 109.08Q26.63 108.66 27.68 108.66Q28.54 108.66 29.26 108.97Q30.15 109.33 30.85 110.14L32.72 108.41Q32.38 108 31.97 107.66Q31.31 107.11 30.5 106.76Q29.18 106.18 27.54 106.18Q25.84 106.18 24.44 106.82Q24.23 106.91 24.03 107.02Q23.15 107.49 22.48 108.18Q21.97 108.7 21.59 109.34Q21.39 109.67 21.24 110.02Q20.7 111.24 20.7 112.69Q20.7 114.14 21.23 115.35Q21.38 115.71 21.59 116.05Q21.97 116.69 22.47 117.21Q23.14 117.9 24.03 118.38Q24.27 118.5 24.52 118.61ZM88.74 112.5L86.07 112.5L86.07 116.19Q85.97 116.24 85.87 116.29Q84.94 116.73 83.8 116.73Q82.7 116.73 81.83 116.29Q81.76 116.25 81.69 116.21Q81.2 115.94 80.83 115.57Q80.49 115.22 80.24 114.79Q80.18 114.68 80.13 114.57Q79.72 113.73 79.72 112.69Q79.72 111.6 80.16 110.74Q80.2 110.66 80.24 110.59Q80.49 110.14 80.84 109.8Q81.22 109.43 81.7 109.17Q81.71 109.16 81.72 109.16Q82.65 108.66 83.84 108.66Q84.72 108.66 85.48 108.97Q86.37 109.32 87.1 110.08L88.97 108.36Q88.69 108.03 88.36 107.75Q87.64 107.12 86.7 106.74Q85.36 106.18 83.7 106.18Q81.89 106.18 80.42 106.88Q80.27 106.95 80.13 107.02Q79.16 107.53 78.46 108.28Q78 108.76 77.66 109.34Q77.46 109.67 77.31 110.02Q76.77 111.24 76.77 112.69Q76.77 114.14 77.3 115.35Q77.45 115.71 77.66 116.05Q78.02 116.67 78.51 117.17Q79.2 117.88 80.11 118.38Q80.27 118.46 80.42 118.53Q81.87 119.21 83.64 119.21Q83.88 119.21 84.12 119.2Q85.25 119.14 86.36 118.8Q87.71 118.38 88.74 117.61L88.74 112.5ZM46.24 119L46.24 106.4L43.32 106.4L43.32 111.36L37.6 111.36L37.6 106.4L34.68 106.4L34.68 119L37.6 119L37.6 113.83L43.32 113.83L43.32 119L46.24 119ZM51.67 116.3L57.52 116.3L58.64 119L61.7 119L56.07 106.4L53.19 106.4L47.57 119L50.56 119L51.67 116.3ZM74.57 119L74.57 106.4L71.69 106.4L71.69 114.05L65.43 106.4L63.02 106.4L63.02 119L65.89 119L65.89 111.34L72.18 119L74.57 119ZM101.19 119L101.19 116.66L94.33 116.66L94.33 113.74L100.19 113.74L100.19 111.47L94.33 111.47L94.33 108.73L100.96 108.73L100.96 106.4L91.44 106.4L91.44 119L101.19 119ZM54.61 109.26L56.61 114.08L52.61 114.08L54.61 109.26ZM24.43 140.55Q25.86 141.21 27.59 141.21Q29.34 141.21 30.78 140.54Q30.95 140.46 31.12 140.37Q32.06 139.86 32.76 139.12Q33.22 138.63 33.58 138.03Q33.83 137.62 34.01 137.18Q34.48 136.03 34.48 134.69Q34.48 133.37 34.02 132.24Q33.84 131.78 33.58 131.36Q33.22 130.75 32.75 130.26Q32.05 129.53 31.12 129.03Q30.94 128.93 30.75 128.85Q29.33 128.18 27.59 128.18Q25.88 128.18 24.45 128.83Q24.25 128.92 24.05 129.03Q23.1 129.54 22.4 130.29Q21.94 130.77 21.59 131.36Q21.35 131.75 21.17 132.18Q20.7 133.34 20.7 134.69Q20.7 136.07 21.19 137.24Q21.36 137.65 21.59 138.03Q21.93 138.61 22.38 139.09Q23.09 139.85 24.05 140.37Q24.24 140.47 24.43 140.55ZM84.23 140.55Q85.66 141.21 87.39 141.21Q89.14 141.21 90.57 140.54Q90.75 140.46 90.91 140.37Q91.85 139.86 92.55 139.12Q93.02 138.63 93.38 138.03Q93.63 137.62 93.81 137.18Q94.28 136.03 94.28 134.69Q94.28 133.37 93.82 132.24Q93.64 131.78 93.38 131.36Q93.02 130.75 92.54 130.26Q91.85 129.53 90.91 129.03Q90.73 128.93 90.55 128.85Q89.12 128.18 87.39 128.18Q85.67 128.18 84.25 128.83Q84.05 128.92 83.85 129.03Q82.89 129.54 82.19 130.29Q81.73 130.77 81.38 131.36Q81.14 131.75 80.97 132.18Q80.49 133.34 80.49 134.69Q80.49 136.07 80.98 137.24Q81.15 137.65 81.38 138.03Q81.73 138.61 82.18 139.09Q82.89 139.85 83.85 140.37Q84.03 140.47 84.23 140.55ZM99.42 140.55Q100.85 141.21 102.58 141.21Q104.33 141.21 105.77 140.54Q105.94 140.46 106.11 140.37Q107.05 139.86 107.75 139.12Q108.21 138.63 108.57 138.03Q108.82 137.62 109 137.18Q109.47 136.03 109.47 134.69Q109.47 133.37 109.01 132.24Q108.83 131.78 108.57 131.36Q108.21 130.75 107.73 130.26Q107.04 129.53 106.11 129.03Q105.93 128.93 105.74 128.85Q104.32 128.18 102.58 128.18Q100.86 128.18 99.44 128.83Q99.24 128.92 99.04 129.03Q98.09 129.54 97.38 130.29Q96.93 130.77 96.57 131.36Q96.34 131.75 96.16 132.18Q95.69 133.34 95.69 134.69Q95.69 136.07 96.17 137.24Q96.34 137.65 96.57 138.03Q96.92 138.61 97.37 139.09Q98.08 139.85 99.04 140.37Q99.23 140.47 99.42 140.55ZM39.6 128.4L36.68 128.4L36.68 141L45.91 141L45.91 138.62L39.6 138.62L39.6 128.4ZM53.27 128.4L47.55 128.4L47.55 141L53.27 141Q55.33 141 56.9 140.21Q57.96 139.69 58.7 138.88Q59.06 138.48 59.35 138.01Q59.44 137.86 59.52 137.71Q60.23 136.39 60.23 134.69Q60.23 132.99 59.52 131.67Q59.44 131.52 59.35 131.38Q59.06 130.92 58.7 130.52Q57.96 129.7 56.9 129.18Q55.33 128.4 53.27 128.4ZM78.22 135.31Q77.65 134.72 76.77 134.44Q77.33 134.15 77.71 133.71Q77.87 133.52 78 133.31Q78.1 133.15 78.17 132.99Q78.44 132.39 78.44 131.67Q78.44 130.92 78.14 130.32Q77.83 129.72 77.21 129.28Q75.97 128.4 73.67 128.4L67.52 128.4L67.52 141L74.03 141Q76.5 141 77.79 140.1Q78.35 139.71 78.67 139.17Q79.07 138.49 79.07 137.56Q79.07 136.57 78.63 135.84Q78.55 135.71 78.46 135.59Q78.35 135.44 78.22 135.31ZM114.57 137.81L116.26 136.05L120.29 141L123.69 141L118.17 134.01L123.39 128.4L120.15 128.4L114.57 134.28L114.57 128.4L111.67 128.4L111.67 141L114.57 141L114.57 137.81ZM70.41 133.56L70.41 130.59L73.31 130.59Q74.39 130.59 74.95 130.96Q75.17 131.1 75.3 131.3Q75.51 131.61 75.51 132.07Q75.51 132.51 75.31 132.82Q75.17 133.03 74.95 133.18Q74.39 133.56 73.31 133.56L70.41 133.56ZM29.16 138.43Q28.44 138.73 27.59 138.73Q26.73 138.73 26 138.42Q25.78 138.33 25.58 138.21Q25.16 137.98 24.83 137.65Q24.44 137.28 24.16 136.78Q24.11 136.7 24.07 136.61Q23.65 135.76 23.65 134.69Q23.65 133.65 24.06 132.8Q24.11 132.7 24.16 132.61Q24.45 132.09 24.85 131.71Q25.18 131.4 25.58 131.18Q25.78 131.06 26 130.97Q26.73 130.66 27.59 130.66Q28.44 130.66 29.16 130.96Q29.39 131.05 29.61 131.18Q30 131.4 30.33 131.71Q30.73 132.09 31.02 132.61Q31.07 132.7 31.12 132.8Q31.54 133.65 31.54 134.69Q31.54 135.76 31.11 136.61Q31.07 136.7 31.02 136.78Q30.74 137.28 30.35 137.65Q30.02 137.98 29.61 138.21Q29.39 138.34 29.16 138.43ZM88.96 138.43Q88.23 138.73 87.39 138.73Q86.53 138.73 85.79 138.42Q85.58 138.33 85.37 138.21Q84.96 137.98 84.62 137.65Q84.23 137.28 83.96 136.78Q83.91 136.7 83.87 136.61Q83.44 135.76 83.44 134.69Q83.44 133.65 83.85 132.8Q83.9 132.7 83.96 132.61Q84.24 132.09 84.65 131.71Q84.97 131.4 85.37 131.18Q85.58 131.06 85.79 130.97Q86.53 130.66 87.39 130.66Q88.23 130.66 88.96 130.96Q89.19 131.05 89.4 131.18Q89.8 131.4 90.12 131.71Q90.53 132.09 90.82 132.61Q90.87 132.7 90.92 132.8Q91.33 133.65 91.33 134.69Q91.33 135.76 90.91 136.61Q90.86 136.7 90.82 136.78Q90.54 137.28 90.15 137.65Q89.82 137.98 89.4 138.21Q89.19 138.34 88.96 138.43ZM104.15 138.43Q103.43 138.73 102.58 138.73Q101.72 138.73 100.98 138.42Q100.77 138.33 100.56 138.21Q100.15 137.98 99.82 137.65Q99.43 137.28 99.15 136.78Q99.1 136.7 99.06 136.61Q98.63 135.76 98.63 134.69Q98.63 133.65 99.05 132.8Q99.1 132.7 99.15 132.61Q99.44 132.09 99.84 131.71Q100.17 131.4 100.56 131.18Q100.77 131.06 100.98 130.97Q101.72 130.66 102.58 130.66Q103.43 130.66 104.15 130.96Q104.38 131.05 104.59 131.18Q104.99 131.4 105.32 131.71Q105.72 132.09 106.01 132.61Q106.06 132.7 106.11 132.8Q106.52 133.65 106.52 134.69Q106.52 135.76 106.1 136.61Q106.06 136.7 106.01 136.78Q105.73 137.28 105.34 137.65Q105.01 137.98 104.59 138.21Q104.38 138.34 104.15 138.43ZM55.81 137.83Q54.75 138.6 53.13 138.6L50.47 138.6L50.47 130.79L53.13 130.79Q54.74 130.79 55.8 131.56Q55.98 131.69 56.15 131.85Q56.45 132.12 56.66 132.45Q57.27 133.37 57.27 134.69Q57.27 136.02 56.66 136.95Q56.44 137.27 56.15 137.55Q55.99 137.7 55.81 137.83ZM75.55 138.42Q74.97 138.8 73.82 138.8L70.41 138.8L70.41 135.69L73.82 135.69Q75.41 135.69 75.91 136.43Q76.14 136.76 76.14 137.25Q76.14 137.75 75.9 138.09Q75.76 138.28 75.55 138.42ZM24.43 162.55Q25.86 163.21 27.59 163.21Q29.34 163.21 30.78 162.54Q30.95 162.46 31.12 162.37Q32.06 161.86 32.76 161.12Q33.22 160.63 33.58 160.03Q33.83 159.62 34.01 159.18Q34.48 158.03 34.48 156.69Q34.48 155.37 34.02 154.24Q33.84 153.78 33.58 153.36Q33.22 152.75 32.75 152.26Q32.05 151.53 31.12 151.03Q30.94 150.93 30.75 150.85Q29.33 150.18 27.59 150.18Q25.88 150.18 24.45 150.83Q24.25 150.92 24.05 151.03Q23.1 151.54 22.4 152.29Q21.94 152.77 21.59 153.36Q21.35 153.75 21.17 154.18Q20.7 155.34 20.7 156.69Q20.7 158.07 21.19 159.24Q21.36 159.65 21.59 160.03Q21.93 160.61 22.38 161.09Q23.09 161.85 24.05 162.37Q24.24 162.47 24.43 162.55ZM48.24 163L48.24 150.4L45.36 150.4L45.36 158.05L39.09 150.4L36.68 150.4L36.68 163L39.56 163L39.56 155.34L45.84 163L48.24 163ZM67.88 163L67.88 150.4L64.99 150.4L64.99 158.05L58.73 150.4L56.32 150.4L56.32 163L59.2 163L59.2 155.34L65.48 163L67.88 163ZM80.62 163L80.62 160.66L73.76 160.66L73.76 157.74L79.61 157.74L79.61 155.47L73.76 155.47L73.76 152.73L80.39 152.73L80.39 150.4L70.86 150.4L70.86 163L80.62 163ZM97.69 163L101.81 150.4L99.02 150.4L96.08 159.32L93.2 150.4L90.5 150.4L87.53 159.25L84.69 150.4L81.66 150.4L85.8 163L88.92 163L91.78 154.46L94.55 163L97.69 163ZM29.16 160.43Q28.44 160.73 27.59 160.73Q26.73 160.73 26 160.42Q25.78 160.33 25.58 160.21Q25.16 159.98 24.83 159.65Q24.44 159.28 24.16 158.78Q24.11 158.7 24.07 158.61Q23.65 157.76 23.65 156.69Q23.65 155.65 24.06 154.8Q24.11 154.7 24.16 154.61Q24.45 154.09 24.85 153.71Q25.18 153.4 25.58 153.18Q25.78 153.06 26 152.97Q26.73 152.66 27.59 152.66Q28.44 152.66 29.16 152.96Q29.39 153.05 29.61 153.18Q30 153.4 30.33 153.71Q30.73 154.09 31.02 154.61Q31.07 154.7 31.12 154.8Q31.54 155.65 31.54 156.69Q31.54 157.76 31.11 158.61Q31.07 158.7 31.02 158.78Q30.74 159.28 30.35 159.65Q30.02 159.98 29.61 160.21Q29.39 160.34 29.16 160.43Z" fill="#1C2A39" fill-opacity="1.000000" fill-rule="evenodd"/>
</svg>
