<svg width="158.000000" height="273.000000" viewBox="0 0 158 273" fill="none" xmlns="http://www.w3.org/2000/svg" xmlns:xlink="http://www.w3.org/1999/xlink">
	<desc>
			Created with Pixso.
	</desc>
	<defs>
		<filter id="filter_1_406_dd" x="-583.000000" y="594.000000" width="0.000000" height="0.000000" filterUnits="userSpaceOnUse" color-interpolation-filters="sRGB">
			<feFlood flood-opacity="0" result="BackgroundImageFix"/>
			<feColorMatrix in="SourceAlpha" type="matrix" values="0 0 0 0 0 0 0 0 0 0 0 0 0 0 0 0 0 0 127 0" result="hardAlpha"/>
			<feOffset dx="0" dy="24"/>
			<feGaussianBlur stdDeviation="12"/>
			<feComposite in2="hardAlpha" operator="out" k2="-1" k3="1"/>
			<feColorMatrix type="matrix" values="0 0 0 0 0.20784 0 0 0 0 0.19216 0 0 0 0 0.32941 0 0 0 0.28 0"/>
			<feBlend mode="normal" in2="BackgroundImageFix" result="effect_dropShadow_1"/>
			<feBlend mode="normal" in="SourceGraphic" in2="effect_dropShadow_1" result="shape"/>
		</filter>
	</defs>
	<rect id="bg" width="137.000000" height="273.000000" fill="#FF8FE6" fill-opacity="1.000000"/>
	<path id="Arrow" d="M21 246L75 246L75 248L21 248L21 246Z" fill="#1C2A39" fill-opacity="1.000000" fill-rule="evenodd"/>
	<path id="Vector" d="M69 241L76 247L69 253" stroke="#1C2A39" stroke-opacity="1.000000" stroke-width="2.000000"/>
	<path id="top 100 books 2022" d="M36.37 165.55Q37.81 166.21 39.54 166.21Q41.29 166.21 42.72 165.54Q42.89 165.46 43.06 165.37Q44 164.86 44.7 164.12Q45.17 163.63 45.53 163.03Q45.78 162.62 45.96 162.18Q46.43 161.03 46.43 159.69Q46.43 158.37 45.97 157.24Q45.78 156.78 45.53 156.36Q45.16 155.75 44.69 155.26Q43.99 154.53 43.06 154.03Q42.88 153.93 42.7 153.85Q41.27 153.18 39.54 153.18Q37.82 153.18 36.4 153.83Q36.19 153.92 36 154.03Q35.04 154.54 34.34 155.29Q33.88 155.77 33.53 156.36Q33.29 156.75 33.12 157.18Q32.64 158.34 32.64 159.69Q32.64 161.07 33.13 162.24Q33.3 162.65 33.53 163.03Q33.88 163.61 34.33 164.09Q35.03 164.85 36 165.37Q36.18 165.47 36.37 165.55ZM21.07 155.77L25.1 155.77L25.1 166L28.01 166L28.01 155.77L32.05 155.77L32.05 153.4L21.07 153.4L21.07 155.77ZM56.98 153.95Q55.75 153.4 54.08 153.4L48.63 153.4L48.63 166L51.54 166L51.54 162.52L54.08 162.52Q55.75 162.52 56.98 161.97Q57.95 161.54 58.57 160.81Q58.74 160.61 58.88 160.39Q58.98 160.24 59.06 160.09Q59.55 159.16 59.55 157.97Q59.55 156.71 59.01 155.75Q58.95 155.64 58.88 155.54Q58.76 155.34 58.61 155.17Q57.98 154.41 56.98 153.95ZM41.1 163.43Q40.38 163.73 39.54 163.73Q38.67 163.73 37.94 163.42Q37.72 163.33 37.52 163.21Q37.1 162.98 36.77 162.65Q36.38 162.28 36.11 161.78Q36.06 161.7 36.01 161.61Q35.59 160.76 35.59 159.69Q35.59 158.65 36 157.8Q36.05 157.7 36.11 157.61Q36.39 157.09 36.8 156.71Q37.12 156.4 37.52 156.18Q37.72 156.06 37.94 155.97Q38.67 155.66 39.54 155.66Q40.38 155.66 41.1 155.96Q41.33 156.05 41.55 156.18Q41.95 156.4 42.27 156.71Q42.68 157.09 42.96 157.61Q43.02 157.7 43.07 157.8Q43.48 158.65 43.48 159.69Q43.48 160.76 43.06 161.61Q43.01 161.7 42.96 161.78Q42.69 162.28 42.3 162.65Q41.97 162.98 41.55 163.21Q41.33 163.34 41.1 163.43ZM55.91 159.58Q55.23 160.15 53.92 160.15L51.54 160.15L51.54 155.77L53.92 155.77Q55.23 155.77 55.91 156.34Q56.1 156.49 56.23 156.68Q56.6 157.19 56.6 157.97Q56.6 158.72 56.25 159.22Q56.11 159.42 55.91 159.58ZM31.99 187.77Q32.98 188.21 34.16 188.21Q35.33 188.21 36.31 187.78Q36.63 187.63 36.94 187.44Q37.13 187.32 37.31 187.18Q38.28 186.43 38.86 185.2Q39.55 183.73 39.55 181.69Q39.55 179.66 38.86 178.2Q38.28 176.96 37.31 176.21Q37.13 176.08 36.94 175.95Q36.63 175.76 36.31 175.62Q35.33 175.18 34.16 175.18Q32.98 175.18 31.99 175.62Q31.66 175.76 31.36 175.95Q31.19 176.06 31.03 176.19Q30.04 176.93 29.44 178.2Q28.75 179.66 28.75 181.69Q28.75 183.73 29.44 185.2Q30.04 186.46 31.03 187.21Q31.19 187.33 31.36 187.44Q31.66 187.63 31.99 187.77ZM44.21 187.77Q45.2 188.21 46.38 188.21Q47.55 188.21 48.53 187.78Q48.86 187.63 49.16 187.44Q49.35 187.32 49.53 187.18Q50.5 186.43 51.08 185.2Q51.77 183.73 51.77 181.69Q51.77 179.66 51.08 178.2Q50.5 176.96 49.53 176.21Q49.35 176.08 49.16 175.95Q48.86 175.76 48.53 175.62Q47.55 175.18 46.38 175.18Q45.2 175.18 44.21 175.62Q43.89 175.76 43.58 175.95Q43.41 176.06 43.25 176.19Q42.26 176.93 41.67 178.2Q40.98 179.66 40.98 181.69Q40.98 183.73 41.67 185.2Q42.26 186.46 43.25 187.21Q43.41 187.33 43.58 187.44Q43.89 187.63 44.21 187.77ZM26.56 188L26.56 175.4L21.12 175.4L21.12 177.73L23.64 177.73L23.64 188L26.56 188ZM35.12 185.53Q34.69 185.75 34.16 185.75Q33.64 185.75 33.22 185.54Q32.72 185.3 32.36 184.76Q31.7 183.76 31.7 181.69Q31.7 179.62 32.36 178.64Q32.72 178.09 33.22 177.85Q33.64 177.65 34.16 177.65Q34.69 177.65 35.12 177.86Q35.61 178.11 35.96 178.64Q36.62 179.62 36.62 181.69Q36.62 183.76 35.96 184.76Q35.61 185.28 35.12 185.53ZM47.34 185.53Q46.91 185.75 46.38 185.75Q45.86 185.75 45.45 185.54Q44.94 185.3 44.58 184.76Q43.92 183.76 43.92 181.69Q43.92 179.62 44.58 178.64Q44.94 178.09 45.45 177.85Q45.86 177.65 46.38 177.65Q46.91 177.65 47.34 177.86Q47.83 178.11 48.18 178.64Q48.84 179.62 48.84 181.69Q48.84 183.76 48.18 184.76Q47.83 185.28 47.34 185.53ZM39.2 209.55Q40.63 210.21 42.36 210.21Q44.11 210.21 45.55 209.54Q45.72 209.46 45.89 209.37Q46.83 208.86 47.53 208.12Q47.99 207.63 48.35 207.03Q48.6 206.62 48.78 206.18Q49.25 205.03 49.25 203.69Q49.25 202.37 48.79 201.24Q48.61 200.78 48.35 200.36Q47.99 199.76 47.52 199.26Q46.82 198.53 45.89 198.03Q45.71 197.93 45.52 197.85Q44.1 197.18 42.36 197.18Q40.65 197.18 39.22 197.83Q39.02 197.92 38.82 198.03Q37.87 198.54 37.17 199.29Q36.71 199.77 36.36 200.36Q36.12 200.76 35.94 201.18Q35.47 202.34 35.47 203.69Q35.47 205.07 35.96 206.24Q36.13 206.65 36.36 207.03Q36.7 207.61 37.15 208.09Q37.86 208.85 38.82 209.37Q39.01 209.47 39.2 209.55ZM54.39 209.55Q55.82 210.21 57.56 210.21Q59.3 210.21 60.74 209.54Q60.91 209.46 61.08 209.37Q62.02 208.86 62.72 208.12Q63.19 207.63 63.54 207.03Q63.8 206.62 63.98 206.18Q64.45 205.03 64.45 203.69Q64.45 202.37 63.99 201.24Q63.8 200.78 63.54 200.36Q63.18 199.76 62.71 199.26Q62.01 198.53 61.08 198.03Q60.9 197.93 60.71 197.85Q59.29 197.18 57.56 197.18Q55.84 197.18 54.42 197.83Q54.21 197.92 54.01 198.03Q53.06 198.54 52.36 199.29Q51.9 199.77 51.55 200.36Q51.31 200.76 51.14 201.18Q50.66 202.34 50.66 203.69Q50.66 205.07 51.15 206.24Q51.32 206.65 51.55 207.03Q51.9 207.61 52.35 208.09Q53.05 208.85 54.01 209.37Q54.2 209.47 54.39 209.55ZM81.4 209.93Q82.58 210.21 83.83 210.21Q85.56 210.21 86.76 209.69Q87.97 209.17 88.57 208.28Q88.87 207.84 89.03 207.35Q89.18 206.85 89.18 206.3Q89.18 205.14 88.62 204.42Q88.57 204.36 88.52 204.31Q88.18 203.92 87.76 203.64Q87.38 203.39 86.95 203.23Q86.03 202.89 84.59 202.54Q83.2 202.24 82.53 201.92Q82.11 201.73 81.95 201.4Q81.85 201.2 81.85 200.96Q81.85 200.7 81.95 200.47Q82.09 200.15 82.44 199.91Q83.02 199.52 84.25 199.52L84.27 199.52Q86.01 199.53 87.74 200.51L88.64 198.3Q87.77 197.76 86.62 197.47Q86.38 197.41 86.14 197.36Q85.22 197.18 84.26 197.18Q82.54 197.18 81.34 197.7Q80.14 198.22 79.55 199.11Q79.3 199.49 79.15 199.91Q78.95 200.47 78.95 201.11Q78.95 202.27 79.52 203Q79.56 203.06 79.61 203.12Q80 203.57 80.48 203.87Q80.81 204.08 81.19 204.22Q82.11 204.56 83.55 204.9Q84.48 205.12 85.03 205.3Q85.58 205.48 85.93 205.78Q86.12 205.93 86.2 206.13Q86.28 206.31 86.28 206.52Q86.28 206.75 86.2 206.94Q86.06 207.27 85.69 207.5Q85.09 207.87 83.85 207.87Q82.73 207.87 81.62 207.51Q80.5 207.15 79.69 206.56L78.7 208.75Q79.55 209.4 80.94 209.81Q81.17 209.87 81.4 209.93ZM33.19 204.31Q32.62 203.72 31.74 203.44Q32.3 203.15 32.68 202.71Q32.84 202.52 32.97 202.31Q33.07 202.15 33.15 201.99Q33.41 201.39 33.41 200.67Q33.41 199.92 33.11 199.32Q32.8 198.72 32.18 198.28Q30.95 197.4 28.65 197.4L22.49 197.4L22.49 210L29.01 210Q31.47 210 32.76 209.1Q33.32 208.71 33.64 208.18Q34.05 207.49 34.05 206.56Q34.05 205.57 33.61 204.84Q33.53 204.71 33.43 204.59Q33.32 204.44 33.19 204.31ZM69.54 206.81L71.23 205.05L75.27 210L78.67 210L73.14 203.01L78.36 197.4L75.12 197.4L69.54 203.28L69.54 197.4L66.64 197.4L66.64 210L69.54 210L69.54 206.81ZM25.39 202.56L25.39 199.59L28.29 199.59Q29.37 199.59 29.92 199.96Q30.14 200.1 30.27 200.3Q30.48 200.61 30.48 201.07Q30.48 201.51 30.28 201.82Q30.15 202.03 29.92 202.18Q29.37 202.56 28.29 202.56L25.39 202.56ZM43.93 207.43Q43.21 207.73 42.36 207.73Q41.5 207.73 40.77 207.42Q40.55 207.33 40.35 207.21Q39.93 206.98 39.6 206.65Q39.21 206.28 38.93 205.79Q38.88 205.7 38.84 205.61Q38.42 204.76 38.42 203.69Q38.42 202.65 38.83 201.8Q38.88 201.7 38.93 201.61Q39.22 201.09 39.62 200.71Q39.95 200.4 40.35 200.18Q40.55 200.06 40.77 199.97Q41.5 199.66 42.36 199.66Q43.21 199.66 43.93 199.96Q44.16 200.05 44.38 200.18Q44.77 200.4 45.1 200.71Q45.5 201.09 45.79 201.61Q45.84 201.7 45.89 201.8Q46.31 202.65 46.31 203.69Q46.31 204.76 45.88 205.61Q45.84 205.7 45.79 205.79Q45.51 206.28 45.12 206.65Q44.79 206.98 44.38 207.21Q44.16 207.34 43.93 207.43ZM59.12 207.43Q58.4 207.73 57.56 207.73Q56.69 207.73 55.96 207.42Q55.74 207.33 55.54 207.21Q55.12 206.98 54.79 206.65Q54.4 206.28 54.12 205.79Q54.08 205.7 54.03 205.61Q53.61 204.76 53.61 203.69Q53.61 202.65 54.02 201.8Q54.07 201.7 54.12 201.61Q54.41 201.09 54.82 200.71Q55.14 200.4 55.54 200.18Q55.74 200.06 55.96 199.97Q56.69 199.66 57.56 199.66Q58.4 199.66 59.12 199.96Q59.35 200.05 59.57 200.18Q59.97 200.4 60.29 200.71Q60.7 201.09 60.98 201.61Q61.04 201.7 61.09 201.8Q61.5 202.65 61.5 203.69Q61.5 204.76 61.07 205.61Q61.03 205.7 60.98 205.79Q60.71 206.28 60.32 206.65Q59.98 206.98 59.57 207.21Q59.35 207.34 59.12 207.43ZM30.53 207.42Q29.94 207.8 28.79 207.8L25.39 207.8L25.39 204.69L28.79 204.69Q30.39 204.69 30.88 205.43Q31.11 205.76 31.11 206.25Q31.11 206.76 30.87 207.09Q30.74 207.28 30.53 207.42ZM31.11 232L31.11 229.62L25.69 229.62L28.59 226.88Q29.83 225.73 30.26 224.83Q30.43 224.49 30.53 224.12Q30.7 223.54 30.7 222.91Q30.7 222 30.33 221.29Q30.23 221.1 30.11 220.93Q30.05 220.84 29.98 220.75Q29.41 220.05 28.47 219.64Q27.42 219.18 26.02 219.18Q24.34 219.18 23.05 219.8Q22.02 220.29 21.35 221.08Q21.17 221.29 21.01 221.52L23.14 222.89Q23.46 222.44 23.89 222.15Q24.06 222.03 24.25 221.95Q24.92 221.63 25.75 221.63Q26.74 221.63 27.25 222.03Q27.41 222.16 27.52 222.32Q27.76 222.68 27.76 223.19Q27.76 223.72 27.49 224.25Q27.22 224.78 26.45 225.51L21.59 230.11L21.59 232L31.11 232ZM35.52 231.77Q36.5 232.21 37.68 232.21Q38.86 232.21 39.84 231.78Q40.16 231.63 40.47 231.44Q40.66 231.32 40.84 231.18Q41.8 230.43 42.39 229.2Q43.08 227.73 43.08 225.69Q43.08 223.66 42.39 222.2Q41.8 220.96 40.84 220.21Q40.66 220.08 40.47 219.95Q40.16 219.76 39.84 219.62Q38.86 219.18 37.68 219.18Q36.5 219.18 35.52 219.62Q35.19 219.76 34.89 219.95Q34.72 220.06 34.55 220.19Q33.57 220.93 32.97 222.2Q32.28 223.66 32.28 225.69Q32.28 227.73 32.97 229.2Q33.57 230.46 34.55 231.21Q34.72 231.33 34.89 231.44Q35.19 231.63 35.52 231.77ZM53.81 232L53.81 229.62L48.39 229.62L51.29 226.88Q52.53 225.73 52.96 224.83Q53.13 224.49 53.23 224.12Q53.4 223.54 53.4 222.91Q53.4 222 53.03 221.29Q52.93 221.1 52.81 220.93Q52.75 220.84 52.67 220.75Q52.11 220.05 51.17 219.64Q50.12 219.18 48.72 219.18Q47.04 219.18 45.75 219.8Q44.72 220.29 44.05 221.08Q43.87 221.29 43.71 221.52L45.83 222.89Q46.16 222.44 46.59 222.15Q46.76 222.03 46.95 221.95Q47.62 221.63 48.44 221.63Q49.44 221.63 49.95 222.03Q50.11 222.16 50.22 222.32Q50.46 222.68 50.46 223.19Q50.46 223.72 50.19 224.25Q49.92 224.78 49.15 225.51L44.29 230.11L44.29 232L53.81 232ZM64.43 232L64.43 229.62L59.01 229.62L61.91 226.88Q63.15 225.73 63.58 224.83Q63.75 224.49 63.85 224.12Q64.02 223.54 64.02 222.91Q64.02 222 63.65 221.29Q63.55 221.1 63.43 220.93Q63.37 220.84 63.29 220.75Q62.73 220.05 61.79 219.64Q60.74 219.18 59.34 219.18Q57.66 219.18 56.37 219.8Q55.34 220.29 54.67 221.08Q54.49 221.29 54.33 221.52L56.45 222.89Q56.78 222.44 57.21 222.15Q57.38 222.03 57.57 221.95Q58.24 221.63 59.06 221.63Q60.06 221.63 60.57 222.03Q60.73 222.16 60.84 222.32Q61.08 222.68 61.08 223.19Q61.08 223.72 60.81 224.25Q60.54 224.78 59.77 225.51L54.91 230.11L54.91 232L64.43 232ZM38.65 229.53Q38.22 229.75 37.68 229.75Q37.17 229.75 36.75 229.54Q36.25 229.3 35.89 228.76Q35.23 227.76 35.23 225.69Q35.23 223.62 35.89 222.64Q36.25 222.09 36.75 221.85Q37.17 221.65 37.68 221.65Q38.22 221.65 38.65 221.86Q39.14 222.11 39.49 222.64Q40.15 223.62 40.15 225.69Q40.15 227.76 39.49 228.76Q39.14 229.28 38.65 229.53Z" fill="#1C2A39" fill-opacity="1.000000" fill-rule="evenodd"/>
</svg>
